<svg xmlns="http://www.w3.org/2000/svg" width="30" height="28" viewBox="0 0 30 28"><g><g><path fill="#0777ba" d="M29.857 26.572c0 .762-.38 1.142-1.143 1.142H26.43c-.763 0-1.143-.38-1.143-1.142v-1.943l-.572.742H5.286l-.572-.742v1.943c0 .762-.381 1.142-1.143 1.142H1.286c-.763 0-1.143-.38-1.143-1.142v-5.886c0-3.162.172-5.276.514-6.343.457-1.333.914-2.095 1.372-2.286a101.043 101.043 0 0 1 1.942-4.8C4.886 5.2 5.705 4.077 6.43 3.886c.418-.115 2.819-.172 7.2-.172h2.743c4.38 0 6.78.057 7.2.172.722.19 1.542 1.314 2.457 3.371a101.474 101.474 0 0 1 1.942 4.8c.458.191.915.953 1.372 2.286.342 1.067.514 3.181.514 6.343zm-2.8-11.144c-.685 0-1.448.286-2.286.858-.534.343-1.01.82-1.428 1.428-1.46 1.678-2.08 2.535-1.863 2.572H8.52c.216-.037-.405-.894-1.863-2.572-.42-.609-.895-1.085-1.429-1.428-.838-.572-1.6-.858-2.285-.858-1.143 0-1.715.763-1.715 2.286 0 .572.134.991.4 1.257.19.153.458.229.8.229h4.5c.01.019.034.057.072.114.647 1.03.99 1.543 1.029 1.543H21.97c.038 0 .38-.514 1.029-1.543.038-.057.062-.095.071-.114h4.5c.343 0 .61-.076.8-.229.267-.266.4-.685.4-1.257 0-1.523-.57-2.286-1.714-2.286zM4.2 11.771c.952-.037 4.552-.057 10.8-.057 6.248 0 9.847.02 10.8.057.38 0 .572-.19.572-.571v-.171c-.268-.648-.725-1.733-1.372-3.258-.571-1.333-1.106-2.075-1.6-2.228H6.6c-.496.153-1.029.895-1.6 2.228a223.242 223.242 0 0 1-1.372 3.258v.171c0 .381.19.571.572.571zm8.686-9.2H7c-.763 0-1.143-.38-1.143-1.143 0-.76.38-1.142 1.143-1.142h5.886c.761 0 1.143.381 1.143 1.142 0 .763-.382 1.144-1.143 1.144zM22.829.287c.761 0 1.142.381 1.142 1.142 0 .763-.38 1.144-1.142 1.144h-5.886c-.763 0-1.143-.38-1.143-1.144 0-.76.38-1.142 1.143-1.142z"/></g></g></svg>