<svg xmlns="http://www.w3.org/2000/svg" width="39" height="35" viewBox="0 0 39 35"><g><g><path fill="#0777ba" d="M18.39 32.149c0-.686-.228-1.276-.685-1.772a2.523 2.523 0 0 0-1.771-.685H4.905c-.648 0-1.22.228-1.714.685a2.418 2.418 0 0 0-.743 1.772h-1.2c-.8 0-1.2.4-1.2 1.2 0 .8.4 1.2 1.2 1.2h18.4c.8 0 1.2-.4 1.2-1.2 0-.8-.4-1.2-1.2-1.2zm-4-30.286c-.533.61-.495 1.181.115 1.714l1.886 1.543c.304.267.323.553.057.857-.229.343-.514.382-.857.114-.61-.532-1.181-.494-1.715.115l-6.228 7.486c-.534.648-.496 1.22.114 1.714.305.267.323.553.057.857-.228.343-.514.381-.857.114l-1.828-1.6c-.649-.494-1.22-.437-1.715.172l-.857.971c-.534.649-.477 1.238.172 1.772l10.228 8.628c.647.496 1.22.438 1.715-.171l.857-1.029c.533-.609.494-1.18-.115-1.714l-1.885-1.543c-.305-.266-.325-.552-.057-.857.228-.305.514-.343.856-.114.61.534 1.181.495 1.715-.115l2.343-2.8 5.371 4.515c-.42.495-.61 1.085-.571 1.77.076.65.361 1.201.857 1.658l9.714 8.4c.609.495 1.18.438 1.715-.171l3.143-3.772c.494-.609.437-1.18-.172-1.714L28.79 20.32c-.534-.457-1.143-.647-1.829-.571-.648.038-1.2.324-1.657.857l-5.371-4.515 2.342-2.8c.534-.608.495-1.18-.114-1.714-.305-.266-.324-.551-.057-.857.228-.304.515-.323.857-.057l1.829 1.543c.647.534 1.219.477 1.714-.172l.857-.97c.533-.648.495-1.22-.114-1.715L16.962.72c-.648-.533-1.22-.494-1.714.115z"/></g></g></svg>