<svg xmlns="http://www.w3.org/2000/svg" width="23" height="23" viewBox="0 0 23 23"><g><g><path fill="#0777ba" d="M22.547 19.799c.14.094.21.242.21.445s-.07.352-.21.446l-1.406 1.406a.462.462 0 0 1-.41.21c-.18 0-.34-.07-.481-.21l-5.297-5.297a.57.57 0 0 1-.164-.422c0-.172.055-.336.164-.492l-1.312-1.29c-1.438 1.126-3.07 1.688-4.899 1.688a7.89 7.89 0 0 1-4.008-1.066 7.804 7.804 0 0 1-2.918-2.918A7.89 7.89 0 0 1 .75 8.291c0-1.437.355-2.773 1.066-4.008a7.808 7.808 0 0 1 2.918-2.918A7.894 7.894 0 0 1 8.742.3c1.438 0 2.774.356 4.008 1.066a7.814 7.814 0 0 1 2.918 2.918 7.896 7.896 0 0 1 1.066 4.008c0 1.828-.562 3.461-1.687 4.899l1.289 1.312a.496.496 0 0 1 .422-.234c.172 0 .336.078.492.234zM4.5 4.049C3.328 5.221 2.742 6.635 2.742 8.291c0 1.657.586 3.07 1.758 4.242 1.172 1.172 2.586 1.758 4.242 1.758 1.656 0 3.07-.586 4.242-1.758 1.172-1.171 1.758-2.585 1.758-4.242 0-1.656-.586-3.07-1.758-4.242-1.172-1.172-2.586-1.758-4.242-1.758-1.656 0-3.07.586-4.242 1.758z"/></g></g></svg>