<svg xmlns="http://www.w3.org/2000/svg" width="34" height="38" viewBox="0 0 34 38"><g><g><path fill="#0777ba" d="M33.207 13.543c.19.152.247.362.171.629l-9.257 22.914c-.077.228-.248.342-.514.342a.512.512 0 0 1-.229-.057l-12.171-4.457a.51.51 0 0 1-.343-.285c-.077-.19-.077-.362 0-.515l1.085-2.171L.921 24.686a.507.507 0 0 1-.286-.343c-.077-.152-.057-.305.058-.457l3.428-6.057L13.72.857c.114-.19.305-.285.572-.285l12.171 1.257h.057c.037.038.076.057.114.057h.058v.057h.057V2h.057l.057.057c0 .038.018.057.057.057-.039 0-.039 0 0 0v.115l.057.057v.228c0 .039-.02.058-.057.058v.057l-1.543 3.257zM6.578 19.428l-4.514 4.515.857.4 4.571-4.571zm-3.2 2l2.286-2.342-.8-.286zm.343 3.315l.857.4L9.321 20.4l-.914-.343zm1.657.8l.857.4 4.857-4.914-.914-.286zm1.657.8l.857.4 5.029-5.028-.915-.344zm1.658.8l.856.4 5.2-5.2-.914-.343zm3.256-20.8l-1.656 2.914 7.142-7.2-1.085-.114zm-1.6 21.543l.858.4 5.314-5.315-.914-.342zm9.315-25.6l-1.086-.114-7.714 7.714.971.286zm-7.658 26.4l.858.4L18.35 23.6l-.915-.286zm8.172-4.4l-.914-.343-6 6-1.086 2.114.115.057zm1.714-21.772L20.807 2.4l-8.057 8.057.97.229zm.057 22.4l-.914-.343-7.828 7.886.914.343zM15.264 1.83l-.743-.057-1.029 1.771zm8.857.914l-1.086-.114-8.342 8.342.97.286zm-.343 22.8l-.914-.343-7.886 7.886.914.342zm1.486-22.686l-8.686 8.628.971.287 7.144-7.143.856-1.715zm.285 23.315l-.914-.286-7.828 7.886.857.285zm-1.942-19.2l-5.086 5.085.971.229 2.972-2.972zm3.428 19.77l-.571-.228-7.886 7.886.914.343 7.258-7.315zm5.143-12.685l-7.314-7.086-2.915 6.057 1.658.457a.517.517 0 0 1 .342.287c.077.152.077.323 0 .514l-4.171 8.628 7.714 2.743zM21.264 35.371l3.828-3.828.857-2.058-5.6 5.6zm.114-23.714l-.971.915.457.114zM24.293 33.6l-2.115 2.114 1.086.4z"/></g></g></svg>