<svg xmlns="http://www.w3.org/2000/svg" width="20" height="22" viewBox="0 0 20 22"><g><g><path fill="#cacaca" d="M16.622 20.488a1.838 1.838 0 1 1 .004-3.675 1.838 1.838 0 0 1-.004 3.675c-1.014 0 0 0 0 0zM3.376 12.842a1.84 1.84 0 0 1-1.838-1.838c0-1.014.826-1.84 1.838-1.84a1.839 1.839 0 0 1 0 3.678c-1.015 0 0 0 0 0zm13.246-7.648a1.839 1.839 0 1 1 1.84-1.84c0 1.015-.825 1.84-1.84 1.84-1.014 0 0 0 0 0zm0-5.214a3.379 3.379 0 0 0-3.375 3.374c0 .34.064.661.159.97L5.83 8.697a3.365 3.365 0 0 0-2.455-1.07A3.38 3.38 0 0 0 0 11.004a3.381 3.381 0 0 0 3.376 3.378c.97 0 1.839-.417 2.455-1.073l7.575 4.375c-.095.308-.16.629-.16.968a3.38 3.38 0 0 0 3.376 3.375A3.38 3.38 0 0 0 20 18.652a3.382 3.382 0 0 0-3.378-3.377c-.969 0-1.836.416-2.452 1.072l-7.575-4.373c.092-.31.159-.63.159-.97a3.36 3.36 0 0 0-.16-.97l7.575-4.375a3.359 3.359 0 0 0 2.453 1.073A3.381 3.381 0 0 0 20 3.354 3.38 3.38 0 0 0 16.622-.02c-1.862 0 0 0 0 0z"/></g></g></svg>