<svg xmlns="http://www.w3.org/2000/svg" width="35" height="38" viewBox="0 0 35 38"><g><g><path fill="#0777ba" d="M31.506 22.029l-1.086-.515c.534-1.523.8-3.085.8-4.685 0-4.076-1.467-7.562-4.4-10.458-2.895-2.933-6.381-4.4-10.457-4.4-4.114 0-7.62 1.467-10.514 4.4-2.895 2.896-4.343 6.382-4.343 10.458 0 3.81 1.257 7.124 3.771 9.942 2.515 2.82 5.638 4.438 9.372 4.858v1.142c-3.734-.381-6.934-1.923-9.6-4.628C1.925 25.019.363 21.248.363 16.829c0-4.38 1.562-8.133 4.686-11.257C8.172 2.41 11.944.829 16.363.829c4.38 0 8.133 1.581 11.258 4.743 3.161 3.124 4.742 6.876 4.742 11.257 0 1.79-.285 3.524-.857 5.2zM16.363 3.114c3.772 0 6.99 1.353 9.657 4.057 2.705 2.667 4.058 5.886 4.058 9.658 0 1.448-.229 2.838-.686 4.17l-11.086-5.37V9.17c0-.266-.134-.4-.4-.4H16.65a.51.51 0 0 0-.229.058c-.648.42-1.371.78-2.171 1.085-.8.306-1.524.534-2.171.686-.229.077-.343.229-.343.457l.114.743c.038.229.171.343.4.343h.571c.42 0 .838-.02 1.258-.057h.057v9.142a4.318 4.318 0 0 0-.743.172c-.343.153-.686.286-1.029.4-.153.077-.228.21-.228.4v.8c0 .306.133.457.4.457h2.114v7.029c-3.429-.42-6.286-1.924-8.571-4.514-2.286-2.59-3.43-5.638-3.43-9.143 0-3.772 1.334-6.99 4-9.658l4-4.057h5.715zm.515 34.057c-.382 0-.572-.19-.572-.571V17.4c0-.19.095-.343.286-.457.19-.114.362-.114.514 0l17.2 8.285c.343.192.42.458.229.8-.153.343-.4.42-.743.23l-16.343-7.944V36.6c0 .38-.191.571-.572.571zm1.714-4.457c5.18-.114 8.99-2.457 11.428-7.028l1.029.514c-1.181 2.21-2.839 4-4.971 5.372a14.522 14.522 0 0 1-7.486 2.285z"/></g></g></svg>