<svg xmlns="http://www.w3.org/2000/svg" width="34" height="36" viewBox="0 0 34 36"><g><g><path fill="#0777ba" d="M22.486 33.252c3.902-.066 7.598.43 8.833.962-1.22.278-4.818-.233-8.833-.962-4.015-.729 0 0 0 0zm-7.569-19.597l5.05 5.05-4.04 4.037-5.048-5.048zm8.771-8.77l5.05 5.047-4.04 4.04-5.048-5.049zm-6.347 27.371a629.782 629.782 0 0 1-5.302-1.105 489.967 489.967 0 0 0-4.578-.953l3.21-3.209c.074.005.148.022.223.022a4.267 4.267 0 0 0 3.03-1.255l1.34-1.34 1.168-1.169 4.038-4.039 4.733-4.732 4.04-4.039L30.277 9.4l1.967-1.966a4.284 4.284 0 1 0-6.058-6.058L24.22 3.342 23.184 4.38l-4.039 4.04-4.733 4.731-4.038 4.04-1.169 1.168-1.34 1.34a4.257 4.257 0 0 0-1.234 3.253l-5.294 5.294a2.855 2.855 0 0 0 2.02 4.876c.73 0 1.461-.279 2.02-.837l.868-.87c1.53.296 3.481.707 5.498 1.134.793.168 1.561.33 2.304.485-7.16 1.998-10.508 1.491-11.367.846-.233-.174-.233-.31-.233-.368a.714.714 0 1 0-1.428 0c0 .415.14 1.013.805 1.512.767.573 2.07.856 3.795.856 2.465 0 5.793-.577 9.651-1.712a18.697 18.697 0 0 1 2.03-.466c9.152 1.851 13.888 2.483 15.173 1.546.653-.476.674-1.073.477-1.474-.883-1.788-9.582-2.483-15.609-1.517-6.027.966 0 0 0 0z"/></g></g></svg>